<svg id="Fill_out_line" height="512" viewBox="0 0 512 512" width="512" xmlns="http://www.w3.org/2000/svg" data-name="Fill out line"><path d="m311.029 299.716h33.941v56.569h-33.941z" fill="#4d4d4d" transform="matrix(.707 -.707 .707 .707 -135.862 328)"/><path d="m376 320-56 56 120 120h56v-56z" fill="#808080"/><path d="m288 120h176v144h-176z" fill="#f2e368"/><circle cx="192" cy="192" fill="#65dcff" r="135.98"/><path d="m112 88h157.66667a66.33333 66.33333 0 0 1 66.33333 66.33333v75.33333a66.33333 66.33333 0 0 1 -66.33333 66.33334h-157.66667a0 0 0 0 1 0 0v-208a0 0 0 0 1 0 0z" fill="#f2e368"/><path d="m192 24a168 168 0 1 0 168 168 168.00488 168.00488 0 0 0 -168-168zm0 303.98a135.98 135.98 0 1 1 135.98-135.98 135.97951 135.97951 0 0 1 -135.98 135.98z" fill="#3ea7ff"/><path d="m144 152h96v96h-96z" fill="#eb352f"/><path d="m240 152h32v96h-32z" fill="#c7161f"/><path d="m370.34326 314.34277-10.34326 10.34323-27.20093-27.20093a176.41726 176.41726 0 0 0 15.94556-25.48507h115.25537a8.00008 8.00008 0 0 0 8-8v-144a8.00008 8.00008 0 0 0 -8-8h-115.25537a176.18993 176.18993 0 0 0 -156.74463-96c-97.04688 0-176 78.95312-176 176s78.95312 176 176 176a175.08471 175.08471 0 0 0 105.48511-35.20093l27.20089 27.20093-10.34278 10.34277a8.00034 8.00034 0 0 0 0 11.31446l112 112 11.31348-11.31446-106.3427-106.34277 44.686-44.68652 106.34326 106.34375 11.31348-11.31446-112-112a8.00182 8.00182 0 0 0 -11.31348 0zm85.65674-186.34277v128h-100.04822a176.18834 176.18834 0 0 0 9.12415-96h42.92407v-16h-46.65356q-2.31811-8.168-5.39466-16zm-424 64c0-88.22461 71.77588-160 160-160s160 71.77539 160 160-71.77588 160-160 160-160-71.77539-160-160zm277.88538 130.57129a177.52932 177.52932 0 0 0 12.686-12.686l26.11462 26.11471-12.686 12.686z"/><path d="m424 144h16v16h-16z"/><path d="m384 176h48v16h-48z"/><path d="m384 208h32v16h-32z"/><path d="m192 48.02051c-79.39062 0-143.98 64.58887-143.98 143.97949s64.58938 143.97949 143.98 143.97949 143.98-64.58887 143.98-143.97949-64.58938-143.97949-143.98-143.97949zm61.86462 31.97949h-123.72924a127.74423 127.74423 0 0 1 123.72924 0zm-189.84462 112a127.63249 127.63249 0 0 1 39.98-92.83667v185.67334a127.63249 127.63249 0 0 1 -39.98-92.83667zm66.11536 112h123.72926a127.74423 127.74423 0 0 1 -123.72924 0zm146.39831-16h-156.53367v-192h156.53369a127.78514 127.78514 0 0 1 0 192z"/><path d="m272 144h-24v-8a23.98433 23.98433 0 0 0 -40-17.86914 23.98433 23.98433 0 0 0 -40 17.86914v8h-24a8.00008 8.00008 0 0 0 -8 8v96a8.00008 8.00008 0 0 0 8 8h128a8.00008 8.00008 0 0 0 8-8v-96a8.00008 8.00008 0 0 0 -8-8zm-48-16a8.00917 8.00917 0 0 1 8 8v8h-16v-8a8.00917 8.00917 0 0 1 8-8zm-40 8a8 8 0 0 1 16 0v8h-16zm-32 24h16v16h16v-16h16v16h16v-16h16v80h-80zm112 80h-16v-80h16z"/></svg>